<svg xmlns="http://www.w3.org/2000/svg" width="1720" height="1320" viewBox="0 0 1720 1320" font-family="Helvetica, Arial, sans-serif">
  <defs>
    <marker id="arr" viewBox="0 0 10 10" refX="9" refY="5" markerWidth="8" markerHeight="8" orient="auto-start-reverse"><path d="M 0 0 L 10 5 L 0 10 z" fill="#111"/></marker>
    <style>
      .title { font-size: 24px; font-weight: bold; fill: #111; }
      .sub { font-size: 12.5px; fill: #444; }
      .lane { font-size: 17px; font-weight: bold; fill: #111; }
      .h { font-size: 14px; font-weight: bold; fill: #111; }
      .t { font-size: 12.5px; fill: #222; }
      .s { font-size: 11px; fill: #666; }
      .lbl { font-size: 11px; fill: #111; font-family: Menlo, Consolas, monospace; }
      .line { stroke: #111; stroke-width: 1.4; fill: none; marker-end: url(#arr); }
      .dashed { stroke: #111; stroke-width: 1.4; fill: none; stroke-dasharray: 6 4; marker-end: url(#arr); }
    </style>
  </defs>
  <rect x="0" y="0" width="1720" height="1320" fill="#fff"/>
<text x="40" y="44" class="title">Fashion stylist: how the service is built and how a request moves through it</text>
<text x="40" y="62" class="sub">POST /recommend takes a sentence like "an outfit for the beach this summer under $150", plans 1 to 5 product slots with an LLM (brand and all), retrieves per slot with dense + BM25 search over 100,000 indexed listings behind a type gate, reranks each slot with an LLM, and returns k</text>
<text x="40" y="78" class="sub">products per slot with reasons. Solid arrows carry data, dashed arrows are LLM calls (both directions), grey boxes are files on disk, the dotted box is the only external service.</text>
<rect x="26" y="92" width="1668" height="342" rx="8" fill="none" stroke="#bbb"/>
<text x="40" y="120" class="lane">1. Offline, run once per catalog: raw json to a verified index directory</text>
<rect x="40.0" y="138" width="218.33333333333334" height="256" rx="4" fill="#fafafa" stroke="#111" stroke-width="1.3"/>
<text x="52.0" y="163" class="h">Commands (Makefile)</text>
<text x="52.0" y="182" class="t">make data: download the 224 MB</text>
<text x="52.0" y="198" class="t">gzip from the McAuley lab mirror</text>
<text x="52.0" y="215" class="t">make ingest: stylist ingest</text>
<text x="52.0" y="232" class="t">make index: stylist build-index</text>
<text x="52.0" y="248" class="t">--limit 100000 --sampling popular</text>
<text x="52.0" y="264" class="t">make demo: 486 row fixture +</text>
<text x="52.0" y="281" class="t">hash embedder, no model</text>
<text x="52.0" y="298" class="t">download</text>
<rect x="324.33333333333337" y="138" width="218.33333333333334" height="256" rx="4" fill="#f4f4f4" stroke="#111" stroke-width="1.3"/>
<text x="336.33333333333337" y="163" class="h">meta_Amazon_Fashion.jsonl.gz</text>
<text x="336.33333333333337" y="181" class="h">(raw)</text>
<text x="336.33333333333337" y="200" class="t">826,108 listings, 224 MB gzip, one</text>
<text x="336.33333333333337" y="216" class="t">json object per line: title, price,</text>
<text x="336.33333333333337" y="233" class="t">average_rating, rating_number,</text>
<text x="336.33333333333337" y="250" class="t">store, features, description,</text>
<text x="336.33333333333337" y="266" class="t">details, images, parent_asin</text>
<text x="336.33333333333337" y="286" class="s">price known for 6% of rows; categories</text>
<text x="336.33333333333337" y="300" class="s">empty for every row, so no taxonomy</text>
<rect x="608.6666666666667" y="138" width="218.33333333333334" height="256" rx="4" fill="#ffffff" stroke="#111" stroke-width="1.3"/>
<text x="620.6666666666667" y="163" class="h">stylist ingest (catalog.py)</text>
<text x="620.6666666666667" y="182" class="t">streams the file, one typed row</text>
<text x="620.6666666666667" y="198" class="t">per listing</text>
<text x="620.6666666666667" y="215" class="t">parse_price: floats and "$12.99"</text>
<text x="620.6666666666667" y="232" class="t">kept, ranges and junk -&gt; null +</text>
<text x="620.6666666666667" y="248" class="t">status</text>
<text x="620.6666666666667" y="264" class="t">derive_audience:</text>
<text x="620.6666666666667" y="281" class="t">details.Department, else title</text>
<text x="620.6666666666667" y="298" class="t">words</text>
<text x="620.6666666666667" y="314" class="t">doc_text = title | features |</text>
<text x="620.6666666666667" y="330" class="t">department, material, style,</text>
<text x="620.6666666666667" y="347" class="t">colour, brand | store</text>
<text x="620.6666666666667" y="366" class="s">bad lines skipped and counted, written</text>
<text x="620.6666666666667" y="381" class="s">to a temp file then renamed; ~30 s</text>
<rect x="893.0000000000001" y="138" width="218.33333333333334" height="256" rx="4" fill="#f4f4f4" stroke="#111" stroke-width="1.3"/>
<text x="905.0000000000001" y="163" class="h">catalog.parquet</text>
<text x="905.0000000000001" y="181" class="h">(data/processed/)</text>
<text x="905.0000000000001" y="200" class="t">826,108 rows, zstd, 150 MB</text>
<text x="905.0000000000001" y="216" class="t">row_id, parent_asin, title, price,</text>
<text x="905.0000000000001" y="233" class="t">price_status, audience,</text>
<text x="905.0000000000001" y="250" class="t">average_rating (null when</text>
<text x="905.0000000000001" y="266" class="t">missing), rating_number, store,</text>
<text x="905.0000000000001" y="282" class="t">image_url, doc_text, details</text>
<rect x="1177.3333333333335" y="138" width="218.33333333333334" height="256" rx="4" fill="#ffffff" stroke="#111" stroke-width="1.3"/>
<text x="1189.3333333333335" y="163" class="h">stylist build-index (index.py)</text>
<text x="1189.3333333333335" y="182" class="t">pick rows: popular 100K (default),</text>
<text x="1189.3333333333335" y="198" class="t">random, or all (Arrow side, nothing</text>
<text x="1189.3333333333335" y="215" class="t">else materialised)</text>
<text x="1189.3333333333335" y="232" class="t">embed doc_text with</text>
<text x="1189.3333333333335" y="248" class="t">BAAI/bge-small-en-v1.5: 384-d,</text>
<text x="1189.3333333333335" y="264" class="t">L2 normalised, batches of 128</text>
<text x="1189.3333333333335" y="281" class="t">BM25 (bm25s) over the same text</text>
<text x="1189.3333333333335" y="298" class="t">sha256 of every file into meta.json</text>
<text x="1189.3333333333335" y="317" class="s">2.7 min for 100K rows on a laptop</text>
<text x="1189.3333333333335" y="332" class="s">GPU; built in a scratch dir, swapped in</text>
<text x="1189.3333333333335" y="346" class="s">at the end</text>
<rect x="1461.666666666667" y="138" width="218.33333333333334" height="256" rx="4" fill="#f4f4f4" stroke="#111" stroke-width="1.3"/>
<text x="1473.666666666667" y="163" class="h">data/index/ (ships as one</text>
<text x="1473.666666666667" y="181" class="h">tarball)</text>
<text x="1473.666666666667" y="200" class="t">embeddings.npy float16 (100000 x</text>
<text x="1473.666666666667" y="216" class="t">384)</text>
<text x="1473.666666666667" y="233" class="t">row_ids.npy int64</text>
<text x="1473.666666666667" y="250" class="t">catalog.parquet: the indexed rows,</text>
<text x="1473.666666666667" y="266" class="t">serving columns</text>
<text x="1473.666666666667" y="282" class="t">bm25/</text>
<text x="1473.666666666667" y="299" class="t">meta.json: pipeline version, model</text>
<text x="1473.666666666667" y="316" class="t">+ revision, dim, counts, sampling,</text>
<text x="1473.666666666667" y="332" class="t">checksums</text>
<text x="1473.666666666667" y="352" class="s">Railway: INDEX_URL +</text>
<text x="1473.666666666667" y="366" class="s">INDEX_SHA256, verified and</text>
<text x="1473.666666666667" y="380" class="s">unpacked at boot</text>
<path d="M 543 266 L 608 266" class="line"/>
<rect x="558" y="237" width="34" height="14" fill="#fff" opacity="0.95"/><text x="576" y="247" class="lbl" text-anchor="middle">json</text>
<rect x="555" y="250" width="41" height="14" fill="#fff" opacity="0.95"/><text x="576" y="260" class="lbl" text-anchor="middle">lines</text>
<path d="M 827 266 L 892 266" class="line"/>
<rect x="840" y="237" width="41" height="14" fill="#fff" opacity="0.95"/><text x="860" y="247" class="lbl" text-anchor="middle">typed</text>
<rect x="843" y="250" width="34" height="14" fill="#fff" opacity="0.95"/><text x="860" y="260" class="lbl" text-anchor="middle">rows</text>
<path d="M 1111 266 L 1176 266" class="line"/>
<rect x="1114" y="237" width="61" height="14" fill="#fff" opacity="0.95"/><text x="1144" y="247" class="lbl" text-anchor="middle">selected</text>
<rect x="1127" y="250" width="34" height="14" fill="#fff" opacity="0.95"/><text x="1144" y="260" class="lbl" text-anchor="middle">rows</text>
<path d="M 1396 266 L 1461 266" class="line"/>
<rect x="1395" y="250" width="67" height="14" fill="#fff" opacity="0.95"/><text x="1429" y="260" class="lbl" text-anchor="middle">artifacts</text>
<text x="40" y="420.5" class="s">Startup check (SearchIndex.load): pipeline version, embedding model name and revision, row counts, row order (row_ids vs catalog), sha256 of every file, finite embeddings. Anything off and the service refuses to start rather than serve misaligned rows.</text>
<rect x="26" y="474.5" width="1668" height="816" rx="8" fill="none" stroke="#bbb"/>
<text x="40" y="502.5" class="lane">2. Online, one request: plan, retrieve, rerank, select (one deadline, every fallback reported)</text>
<rect x="40.0" y="520.5" width="218.33333333333334" height="339" rx="4" fill="#ffffff" stroke="#111" stroke-width="1.3"/>
<text x="52.0" y="546" class="h">Client</text>
<text x="52.0" y="564" class="t">React page (ui/), curl, or any</text>
<text x="52.0" y="581" class="t">HTTP client</text>
<text x="52.0" y="598" class="t">POST /recommend {query, k,</text>
<text x="52.0" y="614" class="t">max_price, min_price, audience,</text>
<text x="52.0" y="630" class="t">include_unpriced, use_llm,</text>
<text x="52.0" y="647" class="t">rerank}</text>
<text x="52.0" y="664" class="t">OpenAPI at /docs, health at</text>
<text x="52.0" y="680" class="t">/health, readiness at /ready</text>
<rect x="324.33333333333337" y="520.5" width="218.33333333333334" height="339" rx="4" fill="#ffffff" stroke="#111" stroke-width="1.3"/>
<text x="336.33333333333337" y="546" class="h">FastAPI (api.py)</text>
<text x="336.33333333333337" y="564" class="t">pydantic validation: unknown</text>
<text x="336.33333333333337" y="581" class="t">fields rejected, query 1 to 500</text>
<text x="336.33333333333337" y="598" class="t">chars, k 1 to 10, finite prices, min</text>
<text x="336.33333333333337" y="614" class="t">&lt;= max</text>
<text x="336.33333333333337" y="630" class="t">request id, per-ip rate limit, in-flight</text>
<text x="336.33333333333337" y="647" class="t">cap, body size limit</text>
<text x="336.33333333333337" y="664" class="t">one 40 s deadline per request;</text>
<text x="336.33333333333337" y="680" class="t">422 / 429 / 503 / 504 error bodies</text>
<rect x="608.6666666666667" y="520.5" width="218.33333333333334" height="339" rx="4" fill="#ffffff" stroke="#111" stroke-width="1.3"/>
<text x="620.6666666666667" y="546" class="h">1. Planner (planner.py)</text>
<text x="620.6666666666667" y="564" class="t">LLM structured output -&gt;</text>
<text x="620.6666666666667" y="581" class="t">PlannerOutput: intent, audience,</text>
<text x="620.6666666666667" y="598" class="t">occasion, season, budget + scope</text>
<text x="620.6666666666667" y="614" class="t">(per item / total), style words, a</text>
<text x="620.6666666666667" y="630" class="t">named brand, 1 to 5 slots: name,</text>
<text x="620.6666666666667" y="647" class="t">listing-style search query, 2 to 6</text>
<text x="620.6666666666667" y="664" class="t">type keywords, up to 4 exclude</text>
<text x="620.6666666666667" y="680" class="t">words, budget share</text>
<text x="620.6666666666667" y="696" class="t">normalize_plan: caps, dedupe,</text>
<text x="620.6666666666667" y="713" class="t">10% floor per slot, never above</text>
<text x="620.6666666666667" y="730" class="t">the total</text>
<text x="620.6666666666667" y="749" class="s">cache per (query, mode, provider,</text>
<text x="620.6666666666667" y="764" class="s">model, prompt version); identical</text>
<text x="620.6666666666667" y="778" class="s">concurrent requests share one call;</text>
<text x="620.6666666666667" y="792" class="s">regex planner if the LLM fails or there</text>
<text x="620.6666666666667" y="807" class="s">is no key</text>
<rect x="893.0000000000001" y="520.5" width="218.33333333333334" height="339" rx="4" fill="#ffffff" stroke="#111" stroke-width="1.3"/>
<text x="905.0000000000001" y="546" class="h">2. Merge constraints</text>
<text x="905.0000000000001" y="564" class="t">request fields override the plan</text>
<text x="905.0000000000001" y="581" class="t">one SlotWindow per slot: min /</text>
<text x="905.0000000000001" y="598" class="t">max price, audience, unpriced</text>
<text x="905.0000000000001" y="614" class="t">policy (strict for an explicit bound,</text>
<text x="905.0000000000001" y="630" class="t">flagged backfill for an inferred</text>
<text x="905.0000000000001" y="647" class="t">one)</text>
<rect x="1177.3333333333335" y="520.5" width="218.33333333333334" height="339" rx="4" fill="#ffffff" stroke="#111" stroke-width="1.3"/>
<text x="1189.3333333333335" y="546" class="h">3. Retriever (retrieval.py)</text>
<text x="1189.3333333333335" y="564" class="t">all slot queries embedded in one</text>
<text x="1189.3333333333335" y="581" class="t">batch, ONE matmul Q (5 x 384)</text>
<text x="1189.3333333333335" y="598" class="t">against E (384 x 100K)</text>
<text x="1189.3333333333335" y="614" class="t">BM25 score for every row</text>
<text x="1189.3333333333335" y="630" class="t">audience + price masks applied</text>
<text x="1189.3333333333335" y="647" class="t">before top-100</text>
<text x="1189.3333333333335" y="664" class="t">reciprocal rank fusion (k = 60), +</text>
<text x="1189.3333333333335" y="680" class="t">keyword boost, - exclude penalty,</text>
<text x="1189.3333333333335" y="696" class="t">+ Bayesian rating prior, +</text>
<text x="1189.3333333333335" y="713" class="t">audience match</text>
<text x="1189.3333333333335" y="730" class="t">type gate for LLM plans (only title</text>
<text x="1189.3333333333335" y="746" class="t">type matches once k exist); a</text>
<text x="1189.3333333333335" y="762" class="t">named brand ranked first, other</text>
<text x="1189.3333333333335" y="779" class="t">brands follow with a warning</text>
<text x="1189.3333333333335" y="796" class="t">one row per variant group</text>
<text x="1189.3333333333335" y="812" class="t">(group_key from the title)</text>
<text x="1189.3333333333335" y="832" class="s">50 to 300 ms; unpriced pool ranked</text>
<text x="1189.3333333333335" y="846" class="s">alongside and flagged when allowed</text>
<rect x="1461.666666666667" y="520.5" width="218.33333333333334" height="339" rx="4" fill="#f4f4f4" stroke="#111" stroke-width="1.3"/>
<text x="1473.666666666667" y="546" class="h">In memory (loaded once)</text>
<text x="1473.666666666667" y="564" class="t">SearchIndex: embeddings float32</text>
<text x="1473.666666666667" y="581" class="t">(100K x 384), bm25s index,</text>
<text x="1473.666666666667" y="598" class="t">serving catalog (pandas), row_ids</text>
<text x="1473.666666666667" y="614" class="t">embedding model</text>
<text x="1473.666666666667" y="630" class="t">bge-small-en-v1.5 (query prefix),</text>
<text x="1473.666666666667" y="647" class="t">CPU or GPU</text>
<text x="1473.666666666667" y="664" class="t">column caches for the masks,</text>
<text x="1473.666666666667" y="680" class="t">group keys memoised</text>
<rect x="40.0" y="945.5" width="502.6666666666667" height="275" rx="4" fill="#ffffff" stroke="#111" stroke-width="1.3" stroke-dasharray="6 4"/>
<text x="52.0" y="970" class="h">LLM provider (llm/)</text>
<text x="52.0" y="990" class="t">Anthropic or OpenAI SDK behind one async method complete_json(system, user,</text>
<text x="52.0" y="1006" class="t">schema)</text>
<text x="52.0" y="1022" class="t">structured output parsed into pydantic models; typed errors: auth, rate limit, timeout,</text>
<text x="52.0" y="1039" class="t">refusal, truncation, validation</text>
<text x="52.0" y="1056" class="t">global concurrency cap (LLM_CONCURRENCY = 8), per stage budgets: plan 15 s,</text>
<text x="52.0" y="1072" class="t">rerank 20 s</text>
<text x="52.0" y="1092" class="s">LLM_PROVIDER=none runs the whole service without a key: regex plan + hybrid retrieval +</text>
<text x="52.0" y="1106" class="s">deterministic reasons</text>
<rect x="608.6666666666667" y="945.5" width="218.33333333333334" height="275" rx="4" fill="#ffffff" stroke="#111" stroke-width="1.3"/>
<text x="620.6666666666667" y="970" class="h">6. Response (schemas.py)</text>
<text x="620.6666666666667" y="990" class="t">request_id, plan as used, slots[]:</text>
<text x="620.6666666666667" y="1006" class="t">name, search_query, keywords,</text>
<text x="620.6666666666667" y="1022" class="t">exclude_keywords, budget_max,</text>
<text x="620.6666666666667" y="1039" class="t">n_eligible, items[]: rank,</text>
<text x="620.6666666666667" y="1056" class="t">parent_asin, title, price,</text>
<text x="620.6666666666667" y="1072" class="t">price_known, average_rating,</text>
<text x="620.6666666666667" y="1088" class="t">rating_number, store, audience,</text>
<text x="620.6666666666667" y="1105" class="t">image_url, url, score,</text>
<text x="620.6666666666667" y="1122" class="t">matched_keywords, reason,</text>
<text x="620.6666666666667" y="1138" class="t">evidence</text>
<text x="620.6666666666667" y="1154" class="t">note, warnings[], index_info,</text>
<text x="620.6666666666667" y="1171" class="t">llm_info, timings</text>
<rect x="893.0000000000001" y="945.5" width="218.33333333333334" height="275" rx="4" fill="#ffffff" stroke="#111" stroke-width="1.3"/>
<text x="905.0000000000001" y="970" class="h">5. Select (service.py)</text>
<text x="905.0000000000001" y="990" class="t">round robin across slots by rank</text>
<text x="905.0000000000001" y="1006" class="t">a product group fills at most one</text>
<text x="905.0000000000001" y="1022" class="t">slot</text>
<text x="905.0000000000001" y="1039" class="t">top k per slot</text>
<text x="905.0000000000001" y="1056" class="t">warnings for every fallback: slot</text>
<text x="905.0000000000001" y="1072" class="t">below k, unpriced items under a</text>
<text x="905.0000000000001" y="1088" class="t">budget, priced picks over a stated</text>
<text x="905.0000000000001" y="1105" class="t">total, planner or rerank fallback</text>
<rect x="1177.3333333333335" y="945.5" width="218.33333333333334" height="275" rx="4" fill="#ffffff" stroke="#111" stroke-width="1.3"/>
<text x="1189.3333333333335" y="970" class="h">4. Reranker (reranker.py)</text>
<text x="1189.3333333333335" y="990" class="t">one LLM call per slot, all slots in</text>
<text x="1189.3333333333335" y="1006" class="t">parallel (asyncio.wait, rerank</text>
<text x="1189.3333333333335" y="1022" class="t">budget)</text>
<text x="1189.3333333333335" y="1039" class="t">prompt: request, plan summary,</text>
<text x="1189.3333333333335" y="1056" class="t">slot, top 10 candidates as</text>
<text x="1189.3333333333335" y="1072" class="t">compact json labelled untrusted</text>
<text x="1189.3333333333335" y="1088" class="t">output: picks[] (row_id, reason</text>
<text x="1189.3333333333335" y="1105" class="t">capped at 15 words, evidence),</text>
<text x="1189.3333333333335" y="1122" class="t">no_good_match, note</text>
<text x="1189.3333333333335" y="1138" class="t">ids validated (offered, unique, &lt;=</text>
<text x="1189.3333333333335" y="1154" class="t">k); a failed or late slot keeps</text>
<text x="1189.3333333333335" y="1171" class="t">retrieval order; urls stripped from</text>
<text x="1189.3333333333335" y="1188" class="t">prose</text>
<text x="1189.3333333333335" y="1207" class="s">3 to 7 s with claude-sonnet-4-6</text>
<rect x="1461.666666666667" y="945.5" width="218.33333333333334" height="275" rx="4" fill="#fafafa" stroke="#111" stroke-width="1.3"/>
<text x="1473.666666666667" y="970" class="h">Timing and fallbacks (laptop</text>
<text x="1473.666666666667" y="988" class="h">M4, claude-sonnet-4-6)</text>
<text x="1473.666666666667" y="1008" class="t">plan 3 to 7 s (cached: 0 ms),</text>
<text x="1473.666666666667" y="1024" class="t">retrieve 0.05 to 0.3 s, rerank 3 to 7</text>
<text x="1473.666666666667" y="1040" class="t">s, total 6 to 12 s</text>
<text x="1473.666666666667" y="1057" class="t">use_llm=false: regex plan +</text>
<text x="1473.666666666667" y="1074" class="t">retrieval only, &lt; 1 s</text>
<text x="1473.666666666667" y="1090" class="t">any LLM failure degrades one</text>
<text x="1473.666666666667" y="1106" class="t">stage, never the request; every</text>
<text x="1473.666666666667" y="1123" class="t">fallback is a warning in the</text>
<text x="1473.666666666667" y="1140" class="t">response</text>
<path d="M 258 690 L 323 690" class="line"/>
<rect x="258" y="674" width="67" height="14" fill="#fff" opacity="0.95"/><text x="291" y="684" class="lbl" text-anchor="middle">POST json</text>
<path d="M 543 690 L 608 690" class="line"/>
<rect x="549" y="661" width="54" height="14" fill="#fff" opacity="0.95"/><text x="576" y="671" class="lbl" text-anchor="middle">query +</text>
<rect x="552" y="674" width="48" height="14" fill="#fff" opacity="0.95"/><text x="576" y="684" class="lbl" text-anchor="middle">fields</text>
<path d="M 827 690 L 892 690" class="line"/>
<rect x="826" y="661" width="67" height="14" fill="#fff" opacity="0.95"/><text x="860" y="671" class="lbl" text-anchor="middle">plan (1-5</text>
<rect x="836" y="674" width="48" height="14" fill="#fff" opacity="0.95"/><text x="860" y="684" class="lbl" text-anchor="middle">slots)</text>
<path d="M 1111 690 L 1176 690" class="line"/>
<rect x="1127" y="661" width="34" height="14" fill="#fff" opacity="0.95"/><text x="1144" y="671" class="lbl" text-anchor="middle">slot</text>
<rect x="1117" y="674" width="54" height="14" fill="#fff" opacity="0.95"/><text x="1144" y="684" class="lbl" text-anchor="middle">windows</text>
<path d="M 1396 674 L 1461 674" class="line"/>
<rect x="1402" y="632" width="54" height="14" fill="#fff" opacity="0.95"/><text x="1429" y="642" class="lbl" text-anchor="middle">5 query</text>
<rect x="1398" y="645" width="61" height="14" fill="#fff" opacity="0.95"/><text x="1429" y="655" class="lbl" text-anchor="middle">vectors,</text>
<rect x="1405" y="658" width="48" height="14" fill="#fff" opacity="0.95"/><text x="1429" y="668" class="lbl" text-anchor="middle">tokens</text>
<path d="M 1462 706 L 1397 706" class="line"/>
<rect x="1405" y="710" width="48" height="14" fill="#fff" opacity="0.95"/><text x="1429" y="720" class="lbl" text-anchor="middle">scores</text>
<rect x="1398" y="723" width="61" height="14" fill="#fff" opacity="0.95"/><text x="1429" y="733" class="lbl" text-anchor="middle">per row,</text>
<rect x="1411" y="736" width="34" height="14" fill="#fff" opacity="0.95"/><text x="1429" y="746" class="lbl" text-anchor="middle">rows</text>
<path d="M 1571 394 L 1571 520" class="line"/>
<rect x="1370" y="452" width="193" height="14" fill="#fff" opacity="0.95"/><text x="1563" y="462" class="lbl" text-anchor="end">loaded + verified at startup</text>
<path d="M 1287 860 L 1287 944" class="line"/>
<rect x="868" y="896" width="411" height="14" fill="#fff" opacity="0.95"/><text x="1279" y="906" class="lbl" text-anchor="end">candidate pools: max(10, k x slots) per slot, grouped, masked</text>
<path d="M 1177 1083 L 1112 1083" class="line"/>
<rect x="1114" y="1054" width="61" height="14" fill="#fff" opacity="0.95"/><text x="1144" y="1064" class="lbl" text-anchor="middle">ranked +</text>
<rect x="1117" y="1067" width="54" height="14" fill="#fff" opacity="0.95"/><text x="1144" y="1077" class="lbl" text-anchor="middle">reasons</text>
<path d="M 893 1083 L 828 1083" class="line"/>
<rect x="840" y="1054" width="41" height="14" fill="#fff" opacity="0.95"/><text x="860" y="1064" class="lbl" text-anchor="middle">k per</text>
<rect x="843" y="1067" width="34" height="14" fill="#fff" opacity="0.95"/><text x="860" y="1077" class="lbl" text-anchor="middle">slot</text>
<path d="M 718 946 L 718 922 L 149 922 L 149 860" class="line"/>
<rect x="163" y="906" width="285" height="14" fill="#fff" opacity="0.95"/><text x="163" y="916" class="lbl" text-anchor="start">200 json (slots, items, reasons, warnings)</text>
<path d="M 649 860 L 649 882 L 483 882 L 483 944" class="dashed" marker-start="url(#arr)"/>
<rect x="229" y="866" width="246" height="14" fill="#fff" opacity="0.95"/><text x="475" y="876" class="lbl" text-anchor="end">prompt + json schema  &lt;-&gt;  plan json</text>
<path d="M 1287 1220 L 1287 1254 L 291 1254 L 291 1222" class="dashed" marker-start="url(#arr)"/>
<rect x="508" y="1238" width="562" height="14" fill="#fff" opacity="0.95"/><text x="789" y="1248" class="lbl" text-anchor="middle">5 prompts, 10 candidates each  &lt;-&gt;  picks + reasons (one call per slot, in parallel)</text>
</svg>
